<svg aria-hidden="true" style="position: absolute; width: 0; height: 0; overflow: hidden;" version="1.1" xmlns="http://www.w3.org/2000/svg" xmlns:xlink="http://www.w3.org/1999/xlink">
<defs>
<symbol id="icon-arrow" viewBox="0 0 53 32">
<path fill="#eb7119" style="fill: var(--color1, #eb7119)" d="M53.333 7.091c0.002 0.569-0.124 1.132-0.368 1.646s-0.6 0.967-1.042 1.326l-22.855 18.403c-0.682 0.56-1.537 0.867-2.419 0.867s-1.737-0.306-2.419-0.867l-22.855-19.051c-0.778-0.647-1.267-1.576-1.36-2.584s0.218-2.011 0.865-2.789c0.647-0.778 1.576-1.267 2.583-1.36s2.010 0.218 2.788 0.865l20.417 17.032 20.417-16.46c0.559-0.466 1.24-0.762 1.962-0.853s1.455 0.027 2.112 0.339c0.657 0.313 1.211 0.807 1.596 1.425s0.585 1.333 0.577 2.061z"></path>
</symbol>
<symbol id="icon-chart" viewBox="0 0 33 32">
<path fill="#fcfdfa" style="fill: var(--color2, #fcfdfa)" d="M31.666 29.877c0 0.421-0.168 0.799-0.446 1.076-0.273 0.278-0.655 0.446-1.071 0.446h-27.759c-0.838 0-1.523-0.684-1.523-1.523v-27.755c0-0.838 0.684-1.523 1.523-1.523 0.417 0 0.794 0.168 1.071 0.446s0.446 0.655 0.446 1.077v26.237h26.241c0.838 0 1.518 0.684 1.518 1.517z"></path>
<path fill="#1f1f1f" style="fill: var(--color3, #1f1f1f)" d="M30.148 32h-27.759c-1.171 0-2.123-0.952-2.123-2.123v-27.755c0-1.17 0.952-2.122 2.123-2.122 0.564 0 1.095 0.221 1.496 0.622s0.622 0.934 0.622 1.5v25.637h25.641c1.168 0 2.118 0.95 2.118 2.118 0 0.567-0.221 1.1-0.622 1.5-0.393 0.4-0.926 0.622-1.496 0.622zM2.389 1.2c-0.509 0-0.923 0.414-0.923 0.922v27.755c0 0.509 0.414 0.923 0.923 0.923h27.759c0.246 0 0.474-0.095 0.644-0.267 0.178-0.178 0.274-0.41 0.274-0.656 0-0.506-0.412-0.918-0.918-0.918h-26.241c-0.331 0-0.6-0.269-0.6-0.6v-26.237c0-0.315-0.147-0.528-0.271-0.652-0.174-0.175-0.404-0.271-0.647-0.271z"></path>
<path fill="#1f1f1f" style="fill: var(--color3, #1f1f1f)" d="M6.47 0.738c-0.172 0.001-0.344 0.062-0.481 0.188-0.292 0.268-0.313 0.723-0.047 1.017l3.456 3.801c0.235 0.257 0.619 0.309 0.913 0.123l2.123-1.347 4.179 12.783c0.097 0.295 0.371 0.495 0.681 0.496 0.001 0 0.002 0 0.003 0 0.308-0.001 0.582-0.2 0.678-0.494l3.147-9.535 2.042 6.255c0.070 0.213 0.235 0.382 0.447 0.456s0.445 0.044 0.632-0.081l1.339-0.894 4.837 12.316c0.145 0.37 0.562 0.55 0.93 0.406 0.369-0.146 0.55-0.564 0.404-0.934l-5.163-13.145c-0.080-0.202-0.245-0.358-0.452-0.423s-0.431-0.032-0.612 0.087l-1.293 0.863-2.426-7.432c-0.097-0.295-0.371-0.495-0.681-0.496-0.001 0-0.002 0-0.003 0-0.308 0.001-0.582 0.2-0.679 0.494l-3.147 9.536-3.788-11.586c-0.069-0.211-0.231-0.378-0.439-0.453s-0.439-0.050-0.626 0.069l-2.392 1.519-3.050-3.356c-0.142-0.156-0.336-0.236-0.532-0.235z"></path>
</symbol>
<symbol id="icon-check" viewBox="0 0 30 32">
<path fill="none" stroke="#fc7c3c" style="stroke: var(--color4, #fc7c3c)" stroke-linejoin="miter" stroke-linecap="butt" stroke-miterlimit="4" stroke-width="1.8824" d="M15.059 1.435c7.797 0 14.118 6.321 14.118 14.118s-6.321 14.118-14.118 14.118c-7.797 0-14.118-6.321-14.118-14.118s6.321-14.118 14.118-14.118z"></path>
<path fill="#fc7c3c" style="fill: var(--color4, #fc7c3c)" d="M20.39 10.333c0.537-0.539 1.445-0.573 2.027-0.075s0.618 1.338 0.081 1.878l-8.605 8.637c-0.553 0.555-1.492 0.572-2.068 0.038l-3.585-3.322c-0.56-0.519-0.56-1.36 0-1.879s1.468-0.519 2.028 0l2.53 2.344 7.593-7.62z"></path>
</symbol>
<symbol id="icon-circle" viewBox="0 0 30 32">
<path fill="none" stroke="#fc7c3c" style="stroke: var(--color4, #fc7c3c)" stroke-linejoin="miter" stroke-linecap="butt" stroke-miterlimit="4" stroke-width="1.8824" d="M15.059 1.435c7.797 0 14.118 6.321 14.118 14.118s-6.321 14.118-14.118 14.118c-7.797 0-14.118-6.321-14.118-14.118s6.321-14.118 14.118-14.118z"></path>
</symbol>
<symbol id="icon-man" viewBox="0 0 29 32">
<path d="M0.74 32c-0.213 0-0.406-0.131-0.467-0.343-0.081-0.253 0.061-0.525 0.325-0.606l7.814-2.394c0.639-0.192 1.177-0.646 1.482-1.242l1.238-2.434c0.122-0.242 0.416-0.333 0.649-0.212 0.244 0.121 0.335 0.414 0.213 0.646l-1.238 2.434c-0.416 0.828-1.167 1.455-2.060 1.727l-7.814 2.394c-0.051 0.020-0.102 0.030-0.142 0.030z"></path>
<path d="M28.261 32c-0.051 0-0.091-0.010-0.142-0.020l-7.814-2.394c-0.893-0.273-1.644-0.899-2.060-1.727l-1.279-2.515c-0.122-0.242-0.020-0.535 0.213-0.646 0.244-0.121 0.538-0.020 0.649 0.212l1.279 2.515c0.304 0.596 0.842 1.051 1.482 1.242l7.814 2.394c0.254 0.081 0.406 0.354 0.325 0.606-0.061 0.202-0.254 0.333-0.467 0.333z"></path>
<path d="M14.125 26.101c-0.020 0-0.041 0-0.061 0-4.729-0.030-8.575-3.939-8.575-8.707v-10.677c0-0.010 0-0.020 0-0.030 0.081-1.434 0.731-2.646 1.959-3.606 1.177-0.919 2.669-1.414 4.222-1.384 7.195 0.151 8.606-1.465 8.616-1.485 0.122-0.172 0.335-0.253 0.538-0.192s0.345 0.232 0.355 0.444l0.041 1.010h1.644c0.213 0 0.406 0.141 0.467 0.343 0.528 1.798-0.254 3.202-0.954 3.909 0.629 1.141 0.548 3.455 0.396 5.768-0.061 0.848 0 5.95 0 6 0 2.313-0.903 4.485-2.557 6.111-1.624 1.606-3.785 2.495-6.089 2.495zM6.463 13.111v4.283c0 4.232 3.41 7.707 7.611 7.737 0.020 0 0.041 0 0.061 0 2.040 0 3.958-0.788 5.399-2.212 1.461-1.444 2.263-3.364 2.263-5.414 0-0.182-0.051-4.121-0.010-5.626-0.426-0.091-0.994-0.252-1.35-0.545-0.091-0.081-0.183-0.141-0.264-0.192-0.284-0.192-0.609-0.414-0.721-1.030-0.173-0.97-0.507-1.737-0.761-2.232-0.375 0.374-0.893 0.687-1.177 0.838-1.198 0.667-4.79 0.768-7.601 0.737-0.081 0.020-0.558 0.232-2.009 1.909-0.649 0.737-1.218 1.465-1.441 1.748zM6.463 6.727v4.828c0.233-0.283 0.497-0.606 0.781-0.919 1.664-1.899 2.253-2.162 2.659-2.152 3.704 0.040 6.373-0.192 7.134-0.616 0.548-0.303 1.106-0.748 1.167-0.929 0.010-0.202 0.142-0.384 0.335-0.444 0.203-0.071 0.416 0 0.548 0.172 0.041 0.051 0.964 1.293 1.329 3.283 0.041 0.212 0.081 0.242 0.315 0.404 0.091 0.061 0.213 0.141 0.345 0.253 0.122 0.101 0.386 0.212 0.771 0.303 0.051-0.808 0.101-1.818 0.061-2.727-0.071-1.596-0.365-2.020-0.497-2.131-0.112-0.101-0.172-0.242-0.162-0.384 0.010-0.152 0.081-0.283 0.203-0.374 0.061-0.040 1.38-1.050 1.055-2.828h-1.725c-0.264 0-0.477-0.202-0.487-0.465l-0.020-0.556c-1.096 0.596-3.501 1.354-8.595 1.242-1.329-0.030-2.608 0.394-3.603 1.172-1.015 0.758-1.553 1.737-1.614 2.869z"></path>
<path d="M10.238 18.061c-1.685 0-3.065-1.364-3.065-3.050 0-1.677 1.37-3.051 3.065-3.051s3.065 1.364 3.065 3.051c0 0.374-0.061 0.727-0.193 1.071-0.091 0.253-0.376 0.374-0.629 0.283s-0.375-0.374-0.284-0.626c0.091-0.232 0.132-0.475 0.132-0.727 0-1.152-0.934-2.081-2.091-2.081s-2.091 0.929-2.091 2.081c0 1.151 0.934 2.081 2.091 2.081 0.193 0 0.386-0.030 0.568-0.081 0.264-0.071 0.528 0.081 0.599 0.333s-0.081 0.525-0.335 0.596c-0.264 0.081-0.548 0.121-0.832 0.121z"></path>
<path d="M10.238 16.454c-0.518 0-1.005-0.283-1.258-0.727-0.132-0.232-0.051-0.525 0.183-0.667 0.233-0.131 0.528-0.050 0.67 0.182 0.081 0.152 0.244 0.242 0.416 0.242 0.264 0 0.477-0.212 0.477-0.475s-0.213-0.475-0.477-0.475c-0.010 0-0.010 0-0.020 0-0.264 0.010-0.497-0.202-0.507-0.465s0.203-0.495 0.467-0.505c0.020 0 0.041 0 0.061 0 0.802 0 1.451 0.646 1.451 1.444-0.010 0.798-0.66 1.444-1.461 1.444z"></path>
<path d="M18.144 18.061c-0.284 0-0.568-0.040-0.832-0.111s-0.406-0.343-0.335-0.596c0.071-0.263 0.345-0.404 0.599-0.333 0.183 0.050 0.375 0.081 0.568 0.081 1.157 0 2.090-0.929 2.090-2.081s-0.934-2.081-2.090-2.081c-1.157 0-2.091 0.929-2.091 2.081 0 0.252 0.041 0.495 0.132 0.727 0.091 0.253-0.030 0.525-0.284 0.626-0.254 0.091-0.528-0.030-0.629-0.283-0.132-0.343-0.193-0.707-0.193-1.071 0-1.677 1.37-3.051 3.065-3.051s3.065 1.364 3.065 3.051c0 1.677-1.38 3.040-3.065 3.040z"></path>
<path d="M18.143 16.454c-0.802 0-1.451-0.646-1.451-1.444s0.649-1.444 1.451-1.444c0.020 0 0.041 0 0.061 0 0.264 0.010 0.477 0.232 0.467 0.505-0.010 0.263-0.233 0.475-0.507 0.465-0.010 0-0.010 0-0.020 0-0.264 0-0.477 0.212-0.477 0.475s0.213 0.475 0.477 0.475c0.172 0 0.335-0.091 0.416-0.242 0.132-0.232 0.426-0.313 0.67-0.182 0.233 0.131 0.315 0.424 0.183 0.667-0.274 0.455-0.751 0.727-1.268 0.727z"></path>
<path d="M9.792 8.202c-0.112 0-0.223-0.040-0.315-0.111-0.203-0.172-0.233-0.475-0.061-0.687l0.863-1.030-0.558-0.081c-0.162-0.020-0.304-0.131-0.376-0.283s-0.061-0.323 0.030-0.465l1.187-1.869c0.142-0.222 0.447-0.293 0.67-0.151s0.294 0.444 0.152 0.667l-0.792 1.232 0.67 0.101c0.173 0.030 0.315 0.141 0.386 0.303 0.061 0.162 0.030 0.343-0.081 0.485l-1.4 1.697c-0.091 0.131-0.233 0.192-0.375 0.192z"></path>
<path d="M15.069 7.828c-0.112 0-0.223-0.040-0.315-0.111-0.203-0.172-0.233-0.475-0.061-0.687l0.863-1.030-0.558-0.081c-0.162-0.020-0.304-0.131-0.375-0.283s-0.061-0.323 0.030-0.465l1.187-1.869c0.142-0.222 0.446-0.293 0.67-0.151s0.294 0.444 0.152 0.667l-0.792 1.232 0.67 0.101c0.173 0.030 0.315 0.141 0.386 0.303 0.061 0.162 0.030 0.343-0.081 0.485l-1.4 1.697c-0.091 0.131-0.233 0.192-0.375 0.192z"></path>
</symbol>
<symbol id="icon-mob" viewBox="0 0 30 32">
<path d="M21.882 2.317h-13.647c-1.038 0-1.882 0.844-1.882 1.882v22.588c0 1.038 0.844 1.882 1.882 1.882h13.647c1.038 0 1.882-0.844 1.882-1.882v-22.588c0-1.038-0.844-1.882-1.882-1.882zM21.647 26.553h-13.176v-22.118h13.176v22.118zM13.882 23.553c0 0.312 0.124 0.611 0.345 0.832s0.52 0.344 0.832 0.344c0.312 0 0.611-0.124 0.832-0.344s0.345-0.52 0.345-0.832c0-0.312-0.124-0.611-0.345-0.832s-0.52-0.345-0.832-0.345c-0.312 0-0.611 0.124-0.832 0.345s-0.345 0.52-0.345 0.832z"></path>
</symbol>
</defs>
</svg>
